<?xml version="1.0" encoding="UTF-8" standalone="no"?>
<!-- Created with Inkscape (http://www.inkscape.org/) -->

<svg
   width="67.477997"
   height="65.420006"
   viewBox="0 0 17.853553 17.309043"
   version="1.1"
   id="svg1"
   sodipodi:docname="primer08.svg"
   inkscape:version="1.3.1 (91b66b0, 2023-11-16)"
   xmlns:inkscape="http://www.inkscape.org/namespaces/inkscape"
   xmlns:sodipodi="http://sodipodi.sourceforge.net/DTD/sodipodi-0.dtd"
   xmlns="http://www.w3.org/2000/svg"
   xmlns:svg="http://www.w3.org/2000/svg">
  <sodipodi:namedview
     id="namedview1"
     pagecolor="#ffffff"
     bordercolor="#000000"
     borderopacity="0.25"
     inkscape:showpageshadow="2"
     inkscape:pageopacity="0.0"
     inkscape:pagecheckerboard="0"
     inkscape:deskcolor="#d1d1d1"
     inkscape:zoom="3.6074592"
     inkscape:cx="33.680215"
     inkscape:cy="32.710003"
     inkscape:window-width="1312"
     inkscape:window-height="449"
     inkscape:window-x="0"
     inkscape:window-y="25"
     inkscape:window-maximized="0"
     inkscape:current-layer="svg1" />
  <defs
     id="defs1" />
  <g
     id="layer1"
     transform="translate(-3.4448264,-3.5207849)">
    <g
       id="g66"
       style="display:inline"
       transform="matrix(0.26458333,0,0,0.26458333,-74.512006,-91.344245)">
      <path
         d="m 308.465,398.117 c 1.901,9.509 1.713,16.591 1.713,16.591 0,0 4.295,1.562 9.915,-0.965 l -0.661,-1.396 c -1.703,0.771 -2.958,0.692 -2.958,0.692 0,0 0.479,-9.146 -2.562,-17.371 z"
         id="path59" />
      <path
         d="m 316.373,394.104 c 1.901,9.517 1.711,16.597 1.711,16.597 0,0 4.297,1.562 9.917,-0.972 l -0.661,-1.393 c -1.704,0.766 -2.958,0.691 -2.958,0.691 0,0 0.479,-9.146 -2.562,-17.37 z"
         id="path60" />
      <polygon
         fill="#434554"
         points="325.108,399.66 341.778,412.688 341.72,396.188 329.438,387.55 "
         id="polygon60" />
      <path
         fill="#8ce6aa"
         d="m 305.052,376.652 -2.023,1.83 c -0.197,5.479 -0.431,12.604 -1.449,17.062 l 13.303,-1.695 c -4.404,-13.972 -9.831,-17.197 -9.831,-17.197 z"
         id="path61" />
      <polygon
         fill="#71758f"
         points="329.438,387.55 341.72,396.188 305.384,407.467 294.831,393.566 "
         id="polygon61" />
      <polygon
         points="307.634,391.341 321.557,388.602 325.933,393.562 313.767,396.585 "
         id="polygon62" />
      <path
         d="m 308.958,391.525 h 1.603 c -2.81,-11.744 -4.604,-13.23 -4.604,-13.23 z"
         id="path62" />
      <path
         fill="#fac473"
         d="m 304.352,377.208 c 0,0 3.604,0.622 4.937,-0.051 1.333,-0.673 2.247,-5.125 1.656,-6.296 -0.6,-1.172 -4.353,-2.521 -5.307,-2.038 -0.956,0.484 -1.286,8.385 -1.286,8.385 z"
         id="path63" />
      <polygon
         points="314.91,382.918 329.743,379.723 329.126,392.828 314.282,396.242 "
         id="polygon63" />
      <polygon
         fill="#959bbd"
         points="294.64,410.236 305.443,423.965 305.384,407.467 294.831,393.566 "
         id="polygon64" />
      <path
         fill="#ff0000"
         d="m 333.216,375.803 0.003,0.002 z m -0.755,-0.88 7.733,-6.647 2.694,3.188 -0.885,0.75 -1.938,-2.292 -6.854,5.895 z"
         id="path64" />
      <polygon
         fill="#cfcfcf"
         points="362.118,383.193 332.259,383.193 332.262,358.545 333.418,358.545 333.418,382.032 362.118,382.032 "
         id="polygon65" />
      <path
         fill="#fac473"
         d="m 306.01,390.419 c 0,0 1.978,0.006 2.625,0.427 4.065,2.627 -0.351,4.514 -1.062,4.414 -0.724,-0.099 -2.17,-0.828 -2.17,-0.828 z"
         id="path65" />
      <path
         fill="#8ce6aa"
         d="m 295.913,390.452 c -0.705,-0.817 -1.196,-1.947 -1.187,-3.142 v 0 c 0.024,-1.875 1.005,-3.504 2.549,-5.127 v 0 c 1.572,-1.641 3.84,-3.354 7.023,-5.289 v 0 l 2.155,3.534 c -2.996,1.816 -5.016,3.392 -6.19,4.613 v 0 c -1.202,1.238 -1.422,2.058 -1.395,2.269 v 0 c 0.007,0.146 0.013,0.221 0.212,0.473 v 0 c 0.193,0.236 0.621,0.58 1.271,0.91 v 0 c 1.292,0.67 3.392,1.261 5.779,1.688 v 0 l -0.735,4.073 c -3.903,-0.766 -7.325,-1.611 -9.482,-4.002 z"
         id="path66" />
    </g>
  </g>
</svg>
