<?xml version="1.0" encoding="UTF-8" standalone="no"?>
<!-- Created with Inkscape (http://www.inkscape.org/) -->

<svg
   width="46.973583mm"
   height="17.184425mm"
   viewBox="0 0 46.973583 17.184425"
   version="1.1"
   id="svg1"
   xmlns="http://www.w3.org/2000/svg"
   xmlns:svg="http://www.w3.org/2000/svg">
  <defs
     id="defs1" />
  <g
     id="layer1"
     transform="translate(-111.125,-133.61459)">
    <g
       id="g97"
       transform="matrix(0.26458333,0,0,0.26458333,102.70675,118.59234)">
		<path
   d="M 34.739,121.726 V 80.442 h 16.712 c 3.969,0 7.053,0.945 9.251,2.834 2.197,1.889 3.295,4.702 3.295,8.441 0,1.812 -0.328,3.422 -0.983,4.827 -0.655,1.408 -1.56,2.583 -2.718,3.527 -1.156,0.945 -2.533,1.658 -4.134,2.14 -1.601,0.482 -3.364,0.723 -5.291,0.723 H 35.896 v 18.791 z m 16.712,-19.948 c 1.617,0 3.122,-0.222 4.508,-0.665 1.389,-0.442 2.593,-1.099 3.614,-1.965 1.021,-0.869 1.822,-1.918 2.399,-3.151 0.579,-1.234 0.868,-2.662 0.868,-4.279 0,-3.275 -0.936,-5.782 -2.805,-7.517 -1.869,-1.735 -4.731,-2.602 -8.585,-2.602 H 35.896 v 20.179 z"
   id="path92" />

		<path
   d="M 66.481,121.726 V 80.442 h 16.884 c 4.317,0 7.479,0.858 9.483,2.573 2.004,1.715 3.044,4.386 3.122,8.008 0.076,2.776 -0.655,5.079 -2.197,6.91 -1.542,1.831 -3.759,3.074 -6.649,3.729 v 0.115 c 1.734,0.231 3.142,0.646 4.221,1.244 1.08,0.597 1.908,1.377 2.486,2.341 0.579,0.964 0.963,2.102 1.156,3.411 0.193,1.311 0.289,2.796 0.289,4.452 0,0.578 0.02,1.301 0.059,2.169 0.037,0.866 0.096,1.725 0.173,2.572 0.077,0.85 0.173,1.619 0.29,2.312 0.114,0.694 0.27,1.176 0.462,1.445 h -1.272 c -0.193,-0.423 -0.346,-0.992 -0.463,-1.705 -0.114,-0.712 -0.201,-1.474 -0.26,-2.284 -0.058,-0.809 -0.096,-1.627 -0.115,-2.458 -0.02,-0.827 -0.028,-1.569 -0.028,-2.225 0,-1.696 -0.126,-3.21 -0.377,-4.539 -0.251,-1.33 -0.761,-2.448 -1.531,-3.354 -0.771,-0.904 -1.87,-1.598 -3.296,-2.08 -1.428,-0.482 -3.335,-0.724 -5.724,-0.724 H 67.638 v 19.369 h -1.157 z m 16.595,-20.527 c 1.542,0 3.017,-0.191 4.423,-0.577 1.408,-0.386 2.65,-1.003 3.73,-1.851 1.078,-0.848 1.945,-1.917 2.602,-3.209 0.657,-1.292 0.983,-2.842 0.983,-4.654 -0.038,-2.93 -0.925,-5.213 -2.659,-6.852 -1.735,-1.638 -4.568,-2.457 -8.5,-2.457 H 67.638 v 19.6 z"
   id="path93" />

		<path
   d="m 101.521,80.442 v 41.283 h -1.156 V 80.442 Z"
   id="path94" />

		<path
   d="m 145.175,80.442 v 41.283 h -1.157 V 81.888 h -0.114 l -17.52,39.838 h -1.272 l -17.52,-39.838 h -0.116 v 39.838 h -1.155 V 80.442 h 1.907 l 17.463,39.78 h 0.113 l 17.464,-39.78 z"
   id="path95" />

		<path
   d="m 177.612,120.57 v 1.155 H 149.973 V 80.442 h 27.408 V 81.6 H 151.13 v 18.04 h 24.689 v 1.155 H 151.13 v 19.775 z"
   id="path96" />

		<path
   d="M 179.577,121.726 V 80.442 h 16.883 c 4.318,0 7.479,0.858 9.483,2.573 2.005,1.715 3.044,4.386 3.123,8.008 0.075,2.776 -0.656,5.079 -2.198,6.91 -1.541,1.831 -3.758,3.074 -6.649,3.729 v 0.115 c 1.735,0.231 3.142,0.646 4.222,1.244 1.079,0.597 1.907,1.377 2.486,2.341 0.578,0.964 0.963,2.102 1.156,3.411 0.192,1.311 0.289,2.796 0.289,4.452 0,0.578 0.02,1.301 0.059,2.169 0.036,0.866 0.096,1.725 0.172,2.572 0.077,0.85 0.174,1.619 0.29,2.312 0.114,0.694 0.27,1.176 0.462,1.445 h -1.271 c -0.193,-0.423 -0.347,-0.992 -0.463,-1.705 -0.115,-0.712 -0.202,-1.474 -0.26,-2.284 -0.058,-0.809 -0.097,-1.627 -0.115,-2.458 -0.02,-0.827 -0.029,-1.569 -0.029,-2.225 0,-1.696 -0.125,-3.21 -0.377,-4.539 -0.25,-1.33 -0.761,-2.448 -1.531,-3.354 -0.771,-0.904 -1.87,-1.598 -3.296,-2.08 -1.427,-0.482 -3.335,-0.724 -5.724,-0.724 h -15.555 v 19.369 h -1.157 z m 16.595,-20.527 c 1.542,0 3.017,-0.191 4.423,-0.577 1.408,-0.386 2.649,-1.003 3.73,-1.851 1.078,-0.848 1.944,-1.917 2.602,-3.209 0.655,-1.292 0.982,-2.842 0.982,-4.654 -0.038,-2.93 -0.924,-5.213 -2.659,-6.852 -1.735,-1.638 -4.567,-2.457 -8.499,-2.457 h -16.018 v 19.6 z"
   id="path97" />

	</g>
    <g
       id="g109"
       transform="matrix(0.26458333,0,0,0.26458333,102.70675,118.59234)">
		<path
   d="m 31.817,60.182 v -3.404 h 15.088 v 3.404 h -5.52 V 75.193 H 37.336 V 60.182 Z"
   id="path98" />

		<path
   d="M 51.135,56.777 V 75.192 H 47.086 V 56.777 Z"
   id="path99" />

		<path
   d="m 58.459,56.777 4.308,12.663 h 0.052 l 4.074,-12.663 h 5.7 v 18.415 h -3.791 v -13.05 h -0.051 l -4.515,13.051 h -3.12 L 56.602,62.271 H 56.55 V 75.193 H 52.759 V 56.777 Z"
   id="path100" />

		<path
   d="m 87.99,56.777 v 3.404 h -9.724 v 3.946 h 8.925 v 3.146 h -8.925 v 4.513 h 9.931 v 3.405 H 74.218 V 56.777 Z"
   id="path101" />

		<path
   d="m 92.787,60.182 v -3.404 h 15.088 v 3.404 h -5.52 V 75.193 H 98.306 V 60.182 Z"
   id="path102" />

		<path
   d="m 117.985,56.777 c 0.824,0 1.568,0.134 2.23,0.399 0.661,0.268 1.229,0.632 1.702,1.097 0.473,0.465 0.834,1.001 1.083,1.611 0.249,0.611 0.375,1.27 0.375,1.974 0,1.083 -0.229,2.021 -0.685,2.812 -0.455,0.79 -1.199,1.392 -2.229,1.806 v 0.051 c 0.498,0.138 0.91,0.349 1.237,0.632 0.326,0.284 0.593,0.619 0.799,1.006 0.207,0.388 0.356,0.812 0.452,1.276 0.094,0.465 0.158,0.929 0.193,1.394 0.018,0.292 0.034,0.637 0.051,1.031 0.018,0.396 0.048,0.8 0.091,1.212 0.043,0.413 0.112,0.805 0.206,1.174 0.094,0.369 0.236,0.683 0.426,0.941 h -4.049 c -0.225,-0.585 -0.361,-1.281 -0.412,-2.089 -0.053,-0.809 -0.129,-1.582 -0.232,-2.322 -0.139,-0.963 -0.431,-1.667 -0.878,-2.114 -0.446,-0.446 -1.177,-0.671 -2.192,-0.671 h -4.049 v 7.196 h -4.049 V 56.777 Z m -1.444,8.331 c 0.928,0 1.624,-0.206 2.089,-0.62 0.465,-0.412 0.697,-1.083 0.697,-2.012 0,-0.894 -0.232,-1.543 -0.697,-1.947 -0.465,-0.402 -1.161,-0.605 -2.089,-0.605 h -4.437 v 5.185 z"
   id="path103" />

		<path
   d="m 133.923,56.777 6.887,18.415 h -4.204 l -1.392,-4.101 h -6.887 l -1.444,4.101 h -4.075 l 6.963,-18.415 z m 0.232,11.296 -2.32,-6.756 h -0.053 l -2.397,6.756 z"
   id="path104" />

		<path
   d="m 143.287,75.192 -5.958,-18.415 h 4.152 l 4.101,12.947 h 0.052 l 4.152,-12.947 h 4.178 l -6.112,18.415 z"
   id="path105" />

		<path
   d="m 167.374,56.777 v 3.404 h -9.723 v 3.946 h 8.925 v 3.146 h -8.925 v 4.513 h 9.931 v 3.405 H 153.603 V 56.777 Z"
   id="path106" />

		<path
   d="m 172.43,56.777 v 15.01 h 8.976 v 3.405 H 168.38 V 56.777 Z"
   id="path107" />

		<path
   d="m 191.024,56.777 v 18.415 h -4.049 V 56.777 Z"
   id="path108" />

		<path
   d="m 196.673,56.777 7.686,12.354 h 0.051 V 56.777 h 3.793 v 18.415 h -4.05 l -7.66,-12.328 h -0.052 V 75.192 H 192.65 V 56.777 Z"
   id="path109" />

	</g>
  </g>
</svg>
