<?xml version="1.0" encoding="UTF-8" standalone="no"?>
<!-- Created with Inkscape (http://www.inkscape.org/) -->

<svg
   width="86.350929"
   height="46.607185"
   viewBox="0 0 22.847016 12.331484"
   version="1.1"
   id="svg1"
   sodipodi:docname="primer02.svg"
   inkscape:version="1.3.1 (91b66b0, 2023-11-16)"
   xmlns:inkscape="http://www.inkscape.org/namespaces/inkscape"
   xmlns:sodipodi="http://sodipodi.sourceforge.net/DTD/sodipodi-0.dtd"
   xmlns="http://www.w3.org/2000/svg"
   xmlns:svg="http://www.w3.org/2000/svg">
  <sodipodi:namedview
     id="namedview1"
     pagecolor="#ffffff"
     bordercolor="#000000"
     borderopacity="0.25"
     inkscape:showpageshadow="2"
     inkscape:pageopacity="0.0"
     inkscape:pagecheckerboard="0"
     inkscape:deskcolor="#d1d1d1"
     inkscape:zoom="5.0635969"
     inkscape:cx="43.151144"
     inkscape:cy="23.303593"
     inkscape:window-width="1312"
     inkscape:window-height="449"
     inkscape:window-x="0"
     inkscape:window-y="25"
     inkscape:window-maximized="0"
     inkscape:current-layer="svg1" />
  <defs
     id="defs1" />
  <g
     id="layer1"
     transform="translate(-1.9863895,-6.4926415)">
    <g
       id="g33"
       style="display:inline"
       transform="matrix(0.26458333,0,0,0.26458333,-28.281696,-47.306362)">
      <path
         fill="#ccccff"
         d="m 119.575,218.511 c 8.582,-4.668 12.688,-3.519 12.736,-3.521 v 0 l 0.231,-0.871 -0.272,0.859 -0.002,-0.001 1.26,-3.943 c -0.521,-0.188 -6.012,-1.605 -15.938,3.846 v 0 z"
         id="path23" />
      <path
         fill="#fac473"
         d="m 117.877,214.822 c 0,0 -1.892,0.556 -2.401,1.144 -3.168,3.659 1.597,4.234 2.26,3.94 0.662,-0.296 1.852,-1.403 1.852,-1.403 z"
         id="path24" />
      <polygon
         fill="#a9afd6"
         points="144.665,230.265 144.438,249.942 138.604,242.178 137.452,223.825 "
         id="polygon24" />
      <polygon
         fill="#cdcfff"
         points="144.665,230.265 137.452,223.825 194.935,222.015 200.75,227.831 "
         id="polygon25" />
      <polygon
         fill="#bfc0ed"
         points="200.75,227.831 200.479,245.963 144.438,249.942 144.665,230.265 "
         id="polygon26" />
      <polygon
         fill="#ffffff"
         points="156.167,221.543 163.835,229.209 164.198,248.567 164.201,248.569 163.04,248.59 162.687,229.701 155.348,222.364 "
         id="polygon27" />
      <path
         fill="#ffffff"
         d="m 184.607,247.142 h 0.002 z m -1.16,-0.021 0.354,-18.319 -8.306,-7.123 0.754,-0.881 8.723,7.479 -0.365,18.864 z"
         id="path27" />
      <path
         fill="#ccccff"
         d="m 143.892,218.151 c -9.138,-3.451 -10.948,-7.314 -10.983,-7.348 v 0 l -0.811,0.396 0.828,-0.354 v 0.002 l -3.809,1.621 c 0.198,0.519 2.71,5.603 13.319,9.56 v 0 z"
         id="path28" />
      <path
         d="m 132.067,243.604 -0.515,-1.455 c -1.774,0.588 -3.013,0.388 -3.013,0.388 0,0 2.664,-8.69 -0.633,-17.589 l -5.803,1.92 c 1.906,9.654 0,16.678 0,16.678 0,0 4.115,1.995 9.964,0.058 z"
         id="path29" />
      <path
         fill="#ccccff"
         d="m 133.926,211.753 -2.742,-1.213 c 0,0 -7.693,0.472 -9.079,16.328 l 6.39,-0.128 c 3.322,-8.568 5.431,-14.987 5.431,-14.987 z"
         id="path30" />
      <path
         d="m 132.308,212.628 c 0.002,0.107 0.208,10.831 -0.164,13.895 l 1.412,0.033 c -0.082,-8.03 -0.558,-13.664 -0.573,-13.875 z"
         id="path31" />
      <path
         fill="#fac473"
         d="m 131.184,210.54 c 0,0 3.069,1.987 4.56,1.895 1.486,-0.096 4.08,-3.829 3.996,-5.139 -0.084,-1.307 -3.004,-4.026 -4.075,-3.96 -1.071,0.069 -4.481,7.204 -4.481,7.204 z"
         id="path32" />
      <polygon
         fill="#a9afd6"
         points="142.025,225.641 140.571,224.43 147.235,224.188 148.629,225.036 "
         id="polygon32" />
      <path
         fill="#fac473"
         d="m 142.209,221.845 c 0,0 1.655,1.072 2.433,1.073 4.842,0.01 2.164,-3.975 1.509,-4.284 -0.655,-0.309 -2.272,-0.486 -2.272,-0.486 z"
         id="path33" />
    </g>
  </g>
</svg>
