<?xml version="1.0" encoding="UTF-8" standalone="no"?>
<!-- Created with Inkscape (http://www.inkscape.org/) -->

<svg
   width="67.477997"
   height="65.420006"
   viewBox="0 0 17.853553 17.309043"
   version="1.1"
   id="svg1"
   sodipodi:docname="primer09.svg"
   inkscape:version="1.3.1 (91b66b0, 2023-11-16)"
   xmlns:inkscape="http://www.inkscape.org/namespaces/inkscape"
   xmlns:sodipodi="http://sodipodi.sourceforge.net/DTD/sodipodi-0.dtd"
   xmlns="http://www.w3.org/2000/svg"
   xmlns:svg="http://www.w3.org/2000/svg">
  <sodipodi:namedview
     id="namedview1"
     pagecolor="#ffffff"
     bordercolor="#000000"
     borderopacity="0.25"
     inkscape:showpageshadow="2"
     inkscape:pageopacity="0.0"
     inkscape:pagecheckerboard="0"
     inkscape:deskcolor="#d1d1d1"
     inkscape:zoom="3.6074592"
     inkscape:cx="33.680215"
     inkscape:cy="32.710003"
     inkscape:window-width="1312"
     inkscape:window-height="449"
     inkscape:window-x="0"
     inkscape:window-y="25"
     inkscape:window-maximized="0"
     inkscape:current-layer="svg1" />
  <defs
     id="defs1" />
  <g
     id="layer1"
     transform="translate(-3.4448264,-3.5207849)">
    <g
       id="g83"
       style="display:inline"
       transform="matrix(0.26458333,0,0,0.26458333,-137.43266,-89.390474)">
      <path
         fill="#ffffff"
         stroke="#000000"
         stroke-width="0.25"
         stroke-miterlimit="10"
         d="m 583.8,378.926 c 0,0 -18.348,23.688 1.046,23.219 19.394,-0.471 -1.046,-23.219 -1.046,-23.219 z"
         id="path75" />
      <polygon
         fill="#e6e6e6"
         points="580.715,370.741 587.032,370.588 584.032,377.247 "
         id="polygon75" />
      <path
         fill="#fac473"
         d="m 548.434,386.523 c 0,0 -1.354,1.431 -1.505,2.188 -0.898,4.762 3.506,2.855 3.938,2.273 0.427,-0.594 0.896,-2.146 0.896,-2.146 z"
         id="path76" />
      <path
         fill="#8ce6aa"
         d="m 560.952,378.26 0.003,-0.002 1.314,-3.924 c 3.268,1.13 11.047,4.279 18.688,1.658 v 0 l 1.332,3.919 c -9.413,3.178 -18.31,-0.666 -21.337,-1.651 z"
         id="path77" />
      <path
         fill="#8ce6aa"
         d="m 548.3,386.582 c 4.574,-6.764 9.472,-9.908 12.915,-11.3 v 0 l 1.563,3.833 c -2.729,1.115 -6.896,3.664 -11.048,9.791 v 0 z"
         id="path78" />
      <path
         fill="#8ce6aa"
         d="m 563.429,374.744 -2.479,0.714 c -0.197,5.485 -1.021,10.627 -2.036,15.089 H 569.1 c -2.67,-8.798 -5.671,-15.803 -5.671,-15.803 z"
         id="path79" />
      <path
         d="m 575.876,404.064 -3.067,1.556 c -0.979,-5.347 -2.343,-10.541 -3.714,-15.073 h -10.188 c -2.165,9.452 -5.239,15.834 -5.239,15.834 0,0 3.278,3.188 9.439,3.188 l -0.031,-1.543 c -1.869,0 -2.982,-0.578 -2.982,-0.578 0,0 3.229,-6.896 4,-13.618 2.594,8.729 3.547,15.739 3.547,15.739 5.291,-1.15 8.791,-3.972 8.791,-3.972 z"
         id="path80" />
      <path
         d="m 567.008,388.979 h 1.604 c -1.455,-7.395 -4.605,-13.229 -4.605,-13.229 l -1.021,0.23 c 3.949,5.036 4.022,12.999 4.022,12.999 z"
         id="path81" />
      <path
         fill="#fac473"
         d="m 561.044,375.458 c 0,0 3.618,-0.535 4.673,-1.591 1.062,-1.055 0.534,-5.57 -0.394,-6.497 -0.935,-0.927 -4.918,-1.037 -5.677,-0.28 -0.756,0.758 1.398,8.368 1.398,8.368 z"
         id="path82" />
      <path
         fill="#fac473"
         d="m 582.156,379.982 c 0,0 1.939,-0.32 2.521,-0.842 3.591,-3.246 -1.065,-4.396 -1.763,-4.188 -0.693,0.213 -2.01,1.167 -2.01,1.167 z"
         id="path83" />
      <path
         d="m 587.19247,393.79422 c -0.13399,-0.31801 -0.31401,-0.58899 -0.542,-0.80999 -0.225,-0.22402 -0.481,-0.401 -0.767,-0.53901 -0.286,-0.13999 -0.581,-0.25901 -0.893,-0.36 -0.388,-0.12899 -0.715,-0.23399 -0.979,-0.31801 -0.27099,-0.082 -0.484,-0.159 -0.649,-0.229 -0.168,-0.074 -0.288,-0.15401 -0.35399,-0.24899 -0.074,-0.092 -0.11199,-0.20799 -0.11199,-0.35301 0,-0.23301 0.095,-0.434 0.28399,-0.574 0.188,-0.146 0.436,-0.229 0.741,-0.229 0.23199,0 0.438,0.0212 0.601,0.055 0.16199,0.039 0.31299,0.082 0.443,0.13901 0.133,0.051 0.26699,0.095 0.396,0.131 0.129,0.038 0.28502,0.062 0.47,0.062 0.30202,0 0.535,-0.10401 0.727,-0.301 0.18501,-0.19498 0.271,-0.445 0.271,-0.757 0,-0.434 -0.23301,-0.782 -0.72101,-1.062 -0.37598,-0.218 -0.922,-0.32201 -1.562,-0.37001 0,-0.286 0,-0.622 0,-1.06201 0,-1.40999 -1.541,-0.75899 -1.541,0 0,0.369 0,0.80301 0,1.14201 -0.10401,0.0219 -0.21898,0.04 -0.314,0.071 -0.425,0.129 -0.8,0.31801 -1.127,0.578 -0.32701,0.262 -0.589,0.588 -0.783,0.98 -0.19102,0.396 -0.29,0.859 -0.29,1.396 0,0.441 0.069,0.81201 0.207,1.11201 0.13901,0.30398 0.31801,0.552 0.54,0.74799 0.22201,0.19699 0.47401,0.35399 0.75501,0.47901 0.281,0.11898 0.56799,0.229 0.86499,0.314 0.312,0.10401 0.602,0.192 0.86501,0.27602 0.26199,0.082 0.48,0.17 0.677,0.25701 0.18799,0.089 0.33501,0.19098 0.437,0.316 0.10401,0.12499 0.15201,0.27402 0.15201,0.463 0,0.24 -0.088,0.455 -0.26302,0.646 -0.183,0.188 -0.485,0.28101 -0.935,0.28101 -0.27799,0 -0.547,-0.028 -0.774,-0.089 -0.23501,-0.063 -0.453,-0.12499 -0.651,-0.192 -0.19801,-0.066 -0.379,-0.13398 -0.539,-0.19098 -0.16199,-0.062 -0.312,-0.088 -0.451,-0.088 -0.34099,0 -0.6,0.11701 -0.773,0.36102 -0.18799,0.24499 -0.27099,0.521 -0.27099,0.82199 0,0.275 0.111,0.518 0.33199,0.72 0.22201,0.20501 0.498,0.37199 0.83001,0.50701 0.33199,0.135 0.68799,0.23198 1.07199,0.29699 0.15701,0.0268 0.29602,0.0242 0.44201,0.041 0,0.314 0,0.703 0,1.246 0,1.411 1.541,0.758 1.541,0 0,-0.423 0,-0.914 0,-1.271 0.18799,-0.0321 0.38299,-0.063 0.56299,-0.11301 0.456,-0.13001 0.85301,-0.32999 1.188,-0.603 0.33702,-0.27201 0.604,-0.613 0.806,-1.023 0.19102,-0.411 0.29802,-0.898 0.29802,-1.479 -0.0128,-0.465 -0.078,-0.86 -0.21199,-1.178 z"
         id="path145"
         style="display:inline;stroke-width:0.999999" />
    </g>
  </g>
</svg>
