<?xml version="1.0" encoding="UTF-8" standalone="no"?>
<!-- Created with Inkscape (http://www.inkscape.org/) -->

<svg
   width="67.479004"
   height="66.630005"
   viewBox="0 0 17.85382 17.629189"
   version="1.1"
   id="svg1"
   sodipodi:docname="primer04.svg"
   inkscape:version="1.3.1 (91b66b0, 2023-11-16)"
   xmlns:inkscape="http://www.inkscape.org/namespaces/inkscape"
   xmlns:sodipodi="http://sodipodi.sourceforge.net/DTD/sodipodi-0.dtd"
   xmlns="http://www.w3.org/2000/svg"
   xmlns:svg="http://www.w3.org/2000/svg">
  <sodipodi:namedview
     id="namedview1"
     pagecolor="#ffffff"
     bordercolor="#000000"
     borderopacity="0.25"
     inkscape:showpageshadow="2"
     inkscape:pageopacity="0.0"
     inkscape:pagecheckerboard="0"
     inkscape:deskcolor="#d1d1d1"
     inkscape:zoom="3.5419478"
     inkscape:cx="33.738498"
     inkscape:cy="33.315002"
     inkscape:window-width="1312"
     inkscape:window-height="449"
     inkscape:window-x="0"
     inkscape:window-y="25"
     inkscape:window-maximized="0"
     inkscape:current-layer="svg1" />
  <defs
     id="defs1" />
  <g
     id="layer1"
     transform="translate(-4.9230242,-3.8594473)">
    <g
       id="g58"
       style="display:inline"
       transform="matrix(0.26458333,0,0,0.26458333,-96.235914,-46.205275)">
      <path
         d="m 396.158,231.619 c 1.896,9.509 1.712,16.59 1.712,16.59 0,0 4.295,1.562 9.916,-0.965 l -0.662,-1.395 c -1.703,0.768 -2.957,0.693 -2.957,0.693 0,0 0.475,-9.145 -2.565,-17.37 z"
         id="path51" />
      <path
         d="m 404.066,227.604 c 1.896,9.511 1.71,16.591 1.71,16.591 0,0 4.298,1.561 9.918,-0.965 l -0.662,-1.394 c -1.704,0.766 -2.958,0.692 -2.958,0.692 0,0 0.476,-9.146 -2.564,-17.371 z"
         id="path52" />
      <polygon
         fill="#434554"
         points="412.802,234.361 429.471,245.119 429.412,229.689 417.132,221.051 "
         id="polygon52" />
      <path
         fill="#cdcfff"
         d="m 392.745,210.155 -2.025,1.829 c -0.19,5.484 -0.43,12.604 -1.441,17.064 l 13.302,-1.696 c -4.409,-13.973 -9.836,-17.197 -9.836,-17.197 z"
         id="path53" />
      <polygon
         fill="#71758f"
         points="417.132,221.051 429.412,229.689 393.077,240.968 382.524,229.132 "
         id="polygon53" />
      <polygon
         points="395.326,224.842 409.249,222.104 413.626,227.063 401.459,230.087 "
         id="polygon54" />
      <path
         d="m 396.65,225.028 h 1.603 c -2.809,-11.746 -4.604,-13.232 -4.604,-13.232 z"
         id="path54" />
      <path
         fill="#fac473"
         d="m 392.044,210.71 c 0,0 3.605,0.622 4.938,-0.051 1.332,-0.672 2.241,-5.126 1.648,-6.297 -0.592,-1.17 -4.347,-2.521 -5.305,-2.038 -0.95,0.484 -1.281,8.386 -1.281,8.386 z"
         id="path55" />
      <polygon
         points="402.604,216.42 417.438,213.224 416.819,226.329 401.976,229.743 "
         id="polygon55" />
      <polygon
         fill="#959bbd"
         points="382.333,245.811 393.136,255.851 393.077,240.968 382.524,229.132 "
         id="polygon56" />
      <path
         fill="#ff0000"
         d="m 427.759,203.417 -6.85,5.888 -0.756,-0.881 7.729,-6.646 6.251,7.359 2.979,-5.12 2.941,2.316 8.516,-17.112 1.036,0.512 -9.146,18.396 -3.021,-2.373 -3.133,5.386 z m -6.85,5.888 0.002,0.002 z"
         id="path56" />
      <polygon
         fill="#cfcfcf"
         points="449.812,216.693 419.952,216.693 419.954,192.047 421.112,192.047 421.109,215.534 449.812,215.534 "
         id="polygon57" />
      <path
         fill="#fac473"
         d="m 393.702,223.92 c 0,0 1.971,0.006 2.625,0.428 4.062,2.626 -0.354,4.512 -1.068,4.414 -0.719,-0.099 -2.17,-0.829 -2.17,-0.829 z"
         id="path57" />
      <path
         fill="#cdcfff"
         d="m 383.605,223.953 c -0.704,-0.816 -1.196,-1.947 -1.188,-3.14 v 0 c 0.023,-1.876 1.005,-3.506 2.548,-5.128 v 0 c 1.572,-1.635 3.84,-3.348 7.024,-5.289 v 0 l 2.149,3.535 c -2.992,1.822 -5.018,3.39 -6.188,4.618 v 0 c -1.201,1.238 -1.422,2.052 -1.396,2.264 v 0 c 0.014,0.151 0.02,0.22 0.219,0.471 v 0 c 0.188,0.238 0.615,0.581 1.271,0.911 v 0 c 1.293,0.669 3.391,1.261 5.779,1.689 v 0 l -0.734,4.073 c -3.904,-0.768 -7.326,-1.613 -9.484,-4.004 z"
         id="path58" />
    </g>
  </g>
</svg>
